<svg width="105" height="33" viewBox="0 0 105 33" fill="none" xmlns="http://www.w3.org/2000/svg">
<path d="M102.045 26.0739C103.136 26.0739 104.082 25.162 104.09 24.0284C104.082 22.912 103.136 22 102.045 22C100.92 22 99.9911 22.912 100 24.0284C99.9911 25.162 100.92 26.0739 102.045 26.0739Z" fill="#FF57B2"/>
<path d="M0.902344 18.4941C0.902344 16.1882 1.41732 14.3516 2.44727 12.9844C3.48633 11.6172 4.90365 10.9336 6.69922 10.9336C8.13932 10.9336 9.32878 11.4714 10.2676 12.5469V5H14.2324V26H10.6641L10.4727 24.4277C9.48828 25.6582 8.22135 26.2734 6.67188 26.2734C4.93099 26.2734 3.5319 25.5898 2.47461 24.2227C1.42643 22.8464 0.902344 20.9368 0.902344 18.4941ZM4.85352 18.7812C4.85352 20.1667 5.09505 21.2285 5.57812 21.9668C6.0612 22.7051 6.76302 23.0742 7.68359 23.0742C8.90495 23.0742 9.76628 22.5592 10.2676 21.5293V15.6914C9.77539 14.6615 8.92318 14.1465 7.71094 14.1465C5.80599 14.1465 4.85352 15.6914 4.85352 18.7812ZM25.8672 26C25.6849 25.6445 25.5527 25.2025 25.4707 24.6738C24.5137 25.7402 23.2695 26.2734 21.7383 26.2734C20.2891 26.2734 19.0859 25.8542 18.1289 25.0156C17.181 24.1771 16.707 23.1198 16.707 21.8438C16.707 20.276 17.2858 19.0729 18.4434 18.2344C19.61 17.3958 21.2917 16.972 23.4883 16.9629H25.3066V16.1152C25.3066 15.4316 25.1289 14.8848 24.7734 14.4746C24.4271 14.0645 23.8757 13.8594 23.1191 13.8594C22.4538 13.8594 21.9297 14.0189 21.5469 14.3379C21.1732 14.6569 20.9863 15.0944 20.9863 15.6504H17.0352C17.0352 14.7936 17.2995 14.0007 17.8281 13.2715C18.3568 12.5423 19.1042 11.9727 20.0703 11.5625C21.0365 11.1432 22.1211 10.9336 23.3242 10.9336C25.1471 10.9336 26.5918 11.3939 27.6582 12.3145C28.7337 13.2259 29.2715 14.5111 29.2715 16.1699V22.582C29.2806 23.9857 29.4766 25.0475 29.8594 25.7676V26H25.8672ZM22.5996 23.252C23.1829 23.252 23.7207 23.1243 24.2129 22.8691C24.7051 22.6048 25.0697 22.2539 25.3066 21.8164V19.2734H23.8301C21.8522 19.2734 20.7995 19.957 20.6719 21.3242L20.6582 21.5566C20.6582 22.0488 20.8314 22.4544 21.1777 22.7734C21.5241 23.0924 21.998 23.252 22.5996 23.252ZM40.3184 21.9121C40.3184 21.429 40.0768 21.0508 39.5938 20.7773C39.1198 20.4948 38.3542 20.2441 37.2969 20.0254C33.7786 19.2871 32.0195 17.7923 32.0195 15.541C32.0195 14.2285 32.5618 13.1348 33.6465 12.2598C34.7402 11.3757 36.1667 10.9336 37.9258 10.9336C39.8034 10.9336 41.3027 11.3757 42.4238 12.2598C43.554 13.1439 44.1191 14.2923 44.1191 15.7051H40.168C40.168 15.14 39.9857 14.6751 39.6211 14.3105C39.2565 13.9368 38.6868 13.75 37.9121 13.75C37.2467 13.75 36.7318 13.9004 36.3672 14.2012C36.0026 14.502 35.8203 14.8848 35.8203 15.3496C35.8203 15.7871 36.0254 16.1426 36.4355 16.416C36.8548 16.6803 37.5566 16.9128 38.541 17.1133C39.5254 17.3047 40.3548 17.5234 41.0293 17.7695C43.1165 18.5352 44.1602 19.8613 44.1602 21.748C44.1602 23.097 43.5814 24.1908 42.4238 25.0293C41.2663 25.8587 39.7715 26.2734 37.9395 26.2734C36.6999 26.2734 35.597 26.0547 34.6309 25.6172C33.6738 25.1706 32.9219 24.5645 32.375 23.7988C31.8281 23.0241 31.5547 22.1901 31.5547 21.2969H35.3008C35.3372 21.9987 35.597 22.5365 36.0801 22.9102C36.5632 23.2839 37.2103 23.4707 38.0215 23.4707C38.778 23.4707 39.3477 23.3294 39.7305 23.0469C40.1224 22.7552 40.3184 22.377 40.3184 21.9121ZM50.5723 12.8203C51.6204 11.5625 52.9375 10.9336 54.5234 10.9336C57.7318 10.9336 59.3587 12.7975 59.4043 16.5254V26H55.4531V16.6348C55.4531 15.7871 55.2708 15.1628 54.9062 14.7617C54.5417 14.3516 53.9355 14.1465 53.0879 14.1465C51.9303 14.1465 51.0918 14.5931 50.5723 15.4863V26H46.6211V5H50.5723V12.8203ZM61.8105 18.4941C61.8105 16.2246 62.3483 14.3971 63.4238 13.0117C64.5085 11.6263 65.9668 10.9336 67.7988 10.9336C69.4212 10.9336 70.6836 11.4896 71.5859 12.6016L71.75 11.207H75.332V25.5078C75.332 26.8021 75.0358 27.9277 74.4434 28.8848C73.86 29.8418 73.0352 30.571 71.9688 31.0723C70.9023 31.5736 69.6536 31.8242 68.2227 31.8242C67.138 31.8242 66.0807 31.6055 65.0508 31.168C64.0208 30.7396 63.2415 30.1836 62.7129 29.5L64.4629 27.0938C65.4473 28.1966 66.6413 28.748 68.0449 28.748C69.0931 28.748 69.9089 28.4655 70.4922 27.9004C71.0755 27.3444 71.3672 26.5514 71.3672 25.5215V24.7285C70.4557 25.7585 69.2572 26.2734 67.7715 26.2734C65.9941 26.2734 64.554 25.5807 63.4512 24.1953C62.3574 22.8008 61.8105 20.9551 61.8105 18.6582V18.4941ZM65.7617 18.7812C65.7617 20.1211 66.0306 21.1738 66.5684 21.9395C67.1061 22.696 67.8444 23.0742 68.7832 23.0742C69.9863 23.0742 70.8477 22.623 71.3672 21.7207V15.5C70.8385 14.5977 69.9863 14.1465 68.8105 14.1465C67.8626 14.1465 67.1152 14.5339 66.5684 15.3086C66.0306 16.0833 65.7617 17.2409 65.7617 18.7812ZM77.7656 18.4668C77.7656 16.9993 78.0482 15.6914 78.6133 14.543C79.1784 13.3945 79.9896 12.5059 81.0469 11.877C82.1133 11.248 83.3483 10.9336 84.752 10.9336C86.748 10.9336 88.375 11.5443 89.6328 12.7656C90.8997 13.987 91.6061 15.6458 91.752 17.7422L91.7793 18.7539C91.7793 21.0234 91.1458 22.8464 89.8789 24.2227C88.612 25.5898 86.9121 26.2734 84.7793 26.2734C82.6465 26.2734 80.9421 25.5898 79.666 24.2227C78.3991 22.8555 77.7656 20.9961 77.7656 18.6445V18.4668ZM81.7168 18.7539C81.7168 20.1576 81.9811 21.2331 82.5098 21.9805C83.0384 22.7188 83.7949 23.0879 84.7793 23.0879C85.7363 23.0879 86.4837 22.7233 87.0215 21.9941C87.5592 21.2559 87.8281 20.0801 87.8281 18.4668C87.8281 17.0905 87.5592 16.0241 87.0215 15.2676C86.4837 14.5111 85.7272 14.1328 84.752 14.1328C83.7858 14.1328 83.0384 14.5111 82.5098 15.2676C81.9811 16.015 81.7168 17.1771 81.7168 18.7539Z" fill="white"/>
</svg>
